<svg xmlns="http://www.w3.org/2000/svg" xmlns:xlink="http://www.w3.org/1999/xlink" width="190.004" height="190.004" viewBox="0 0 190.004 190.004">
  <defs>
    <radialGradient id="radial-gradient" cx="0.5" cy="0.5" r="0.5" gradientUnits="objectBoundingBox">
      <stop offset="0" stop-color="#fff" stop-opacity="0"/>
      <stop offset="0.877" stop-color="#1bb8fe" stop-opacity="0"/>
      <stop offset="1" stop-color="#c8c8c8" stop-opacity="0.161"/>
    </radialGradient>
  </defs>
  <path id="합치기_70" data-name="합치기 70" d="M95.808,175.9l1.135-.038.493,14.1L96.3,190Zm-2.824,14.088V175.884h1.135v14.108Zm-3.314-.127.493-14.1,1.134.041L90.8,189.9Zm8.961-14.038,1.132-.079.987,14.073-1.134.08ZM86.361,189.62l.986-14.076,1.132.08L87.494,189.7Zm15.087-13.969,1.13-.118,1.478,14.032-1.134.118Zm-18.383,13.61,1.474-14.032,1.132.118-1.476,14.032Zm21.2-13.885,1.123-.156,1.964,13.969-1.123.159Zm-24.478,13.41,1.964-13.97,1.123.159-1.964,13.97Zm27.276-13.781,1.118-.2,2.45,13.893-1.117.2ZM76.52,188.2l2.451-13.893,1.117.195-2.45,13.9Zm33.325-13.663,1.109-.236,2.934,13.8-1.112.236ZM73.28,187.5l2.931-13.8,1.111.236-2.934,13.8Zm39.331-13.528,1.1-.277,3.415,13.69-1.1.277ZM70.065,186.681l3.411-13.687,1.1.274-3.415,13.69Zm45.292-13.374,1.09-.313,3.889,13.56-1.09.316ZM66.879,185.755l3.889-13.56,1.093.312-3.889,13.56Zm51.195-13.206,1.082-.351,4.358,13.419-1.078.35ZM63.73,184.72,68.091,171.3l1.079.35-4.358,13.418Zm57.039-13.026,1.065-.386,4.826,13.256-1.067.389Zm-60.15,11.879,4.824-13.26,1.067.389-4.826,13.26Zm62.81-12.823,1.052-.427,5.286,13.082-1.051.424ZM57.547,182.32l5.284-13.082,1.055.424L58.6,182.745Zm68.508-12.608,1.038-.463,5.737,12.891-1.038.46ZM54.521,180.958l5.741-12.888,1.036.463L55.559,181.42Zm74.123-12.377,1.02-.5,6.185,12.678-1.023.5Zm-77.1,10.912,6.186-12.678,1.02.5L52.567,179.99Zm79.646-12.13,1-.534,6.625,12.458-1,.533ZM48.625,177.927l6.625-12.458,1,.531-6.625,12.46Zm85.07-11.871.982-.569,7.055,12.218-.984.569Zm-87.936,10.2,7.055-12.219.982.566-7.055,12.219Zm90.391-11.6.965-.6,7.474,11.965-.962.6Zm-93.2,9.827,7.475-11.965.964.6L43.917,175.09Zm95.6-11.3.941-.637,7.89,11.7-.941.637Zm-98.344,9.438,7.89-11.693.941.633-7.891,11.7Zm100.7-11,.92-.667,8.29,11.414-.916.666ZM37.536,170.665l8.294-11.413.916.667-8.294,11.413ZM143.206,159.98l.9-.7,8.682,11.118-.893.7ZM34.929,168.613l8.689-11.119.893.7-8.686,11.116Zm110.516-10.355.869-.731,9.07,10.809-.871.729ZM32.4,166.472l9.069-10.809.87.731L33.268,167.2Zm115.227-10.016.842-.758,9.441,10.485-.843.761Zm-117.68,7.787,9.437-10.485.848.761L30.787,165Zm119.791-9.659.817-.787,9.8,10.149-.817.787ZM27.563,161.931l9.8-10.148.817.787-9.8,10.148Zm124.217-9.293.79-.817,10.148,9.8-.79.817Zm-126.51,6.9,10.149-9.8.788.816-10.147,9.8Zm128.485-8.916.761-.844L165,159.219l-.762.843Zm-130.7,6.442,10.485-9.441.761.846-10.485,9.438Zm132.605-8.527.727-.87,10.809,9.067-.732.87ZM20.94,154.513l10.806-9.067.732.87-10.81,9.067Zm136.555-8.126.7-.9,11.115,8.686-.7.9ZM18.908,151.895l11.115-8.686.7.894-11.116,8.686Zm140.341-7.722.666-.917,11.417,8.291-.67.92ZM16.968,149.2l11.413-8.291.67.917-11.417,8.294Zm143.958-7.3.635-.94,11.7,7.89-.633.941Zm-145.8,4.544,11.7-7.887.638.94-11.7,7.89Zm147.4-6.873.6-.964,11.964,7.477-.6.964ZM13.376,143.628l11.965-7.477.6.964-11.964,7.477Zm150.662-6.439.568-.982,12.215,7.055-.567.982ZM11.728,140.75l12.219-7.056.567.984L12.3,141.734Zm153.739-5.994L166,133.75l12.457,6.625-.533,1ZM10.183,137.816l12.457-6.625.534,1-12.457,6.625Zm156.629-5.546.5-1.02,12.681,6.186-.5,1.02ZM8.741,134.83l12.683-6.186.494,1.023L9.241,135.849Zm159.326-5.086.463-1.038,12.887,5.738-.46,1.038ZM7.4,131.8l12.887-5.738.463,1.038L7.866,132.834Zm161.835-4.626.426-1.052,13.081,5.286-.427,1.053ZM6.174,128.714l13.08-5.283.427,1.052L6.6,129.767Zm164.139-4.154.39-1.067,13.256,4.827-.389,1.065ZM5.051,125.594l13.256-4.826.389,1.067L5.439,126.662Zm166.248-3.68.352-1.082,13.418,4.361-.35,1.079Zm-167.259.522,13.418-4.361.35,1.079L4.39,123.516Zm168.153-3.2.313-1.091,13.563,3.889-.313,1.091Zm-169.055.009L16.7,115.358l.316,1.091L3.449,120.338Zm169.855-2.718.273-1.1,13.69,3.411-.274,1.1Zm-170.645-.5,13.686-3.411.279,1.1-13.69,3.415ZM173.7,113.792l.235-1.111,13.8,2.933-.235,1.109ZM1.668,112.778l13.8-2.934.237,1.112L1.9,113.89ZM174.3,111.033l.2-1.118,13.893,2.45-.2,1.117Zm-173.2-1.522L15,107.061l.2,1.118L1.3,110.629Zm173.708-1.256.156-1.123,13.972,1.963-.156,1.123ZM.654,106.223l13.972-1.963.156,1.126L.814,107.346Zm174.575-.76.118-1.13,14.032,1.475-.123,1.129ZM.322,102.925l14.032-1.475.117,1.13L.44,104.053Zm175.223-.269.08-1.132,14.072.984-.076,1.132ZM.1,99.616l14.072-.984.08,1.132-14.071.984Zm175.66.224L175.8,98.7l14.1.493-.038,1.135ZM0,96.3l14.1-.492.042,1.135-14.1.493Zm175.88.719V95.883h14.108v1.135Zm-.018-3.96,14.1-.492L190,93.7l-14.1.493ZM.011,94.121V92.985H14.119v1.135Zm175.733-3.88,14.077-.985.078,1.132-14.075.985ZM.1,90.806l.038-1.135,14.1.492L14.2,91.3ZM175.53,87.424l14.03-1.474.118,1.129-14.032,1.474ZM.306,87.495l.076-1.133,14.076.986-.08,1.132Zm174.911-2.878,13.973-1.963.156,1.126-13.972,1.961ZM.626,84.2l.116-1.129,14.032,1.474-.12,1.13ZM174.8,81.825l13.9-2.45.195,1.12L175,82.943ZM1.058,80.908l.157-1.123,13.972,1.964-.156,1.123ZM174.3,79.047l13.8-2.933.237,1.112-13.8,2.933ZM1.606,77.638l.2-1.118,13.9,2.45-.2,1.118Zm172.087-1.351,13.69-3.411.273,1.1-13.688,3.415ZM2.271,74.389l.239-1.112,13.8,2.933-.235,1.112Zm170.721-.834,13.562-3.889.312,1.091L173.3,74.645ZM3.046,71.167l.274-1.1,13.692,3.414-.276,1.1Zm169.149-.318,13.418-4.361.35,1.079-13.417,4.361ZM3.937,67.971l.312-1.091,13.563,3.889-.316,1.094Zm167.368.2,13.257-4.826.388,1.067-13.257,4.824ZM4.935,64.81l.348-1.079L18.7,68.088l-.348,1.079Zm165.387.71,13.08-5.287.428,1.053-13.083,5.286ZM6.041,61.684l.389-1.067,13.259,4.827L19.3,66.508Zm163.205,1.224,12.887-5.738.463,1.038L169.71,63.946ZM7.258,58.6l.424-1.052,13.082,5.284-.423,1.052Zm160.824,1.737,12.681-6.183.5,1.02-12.681,6.183ZM8.583,55.561l.462-1.038L21.933,60.26,21.47,61.3Zm158.246,2.247,12.457-6.623.531,1L167.36,58.81ZM10.013,52.567l.494-1.02,12.682,6.186-.5,1.02Zm155.474,2.757,12.219-7.056.566.984-12.215,7.053Zm-153.942-5.7.531-1,12.457,6.622-.531,1ZM164.06,52.889l11.964-7.477.6.964L164.662,53.85ZM13.179,46.742l.569-.982,12.214,7.053L25.4,53.8ZM162.549,50.5l11.7-7.89.635.944-11.7,7.887ZM14.914,43.917l.6-.964L27.478,50.43l-.6.961Zm146.039,4.258,11.413-8.294.67.92-11.416,8.29ZM16.744,41.155l.633-.944,11.7,7.89-.635.941ZM159.278,45.9,170.4,37.215l.7.893-11.119,8.686ZM18.671,38.453l.668-.92,11.413,8.294-.665.918Zm138.856,5.234,10.8-9.07.731.87-10.808,9.07ZM20.692,35.823l.7-.893,11.119,8.686-.7.893Zm135,5.711L166.18,32.1l.762.843-10.485,9.441ZM22.8,33.267l.727-.869L34.34,41.467l-.731.867ZM153.795,39.45l10.147-9.8.79.817-10.147,9.8ZM25,30.787l.761-.846,10.485,9.441-.761.844Zm126.822,6.646,9.8-10.148.817.787-9.8,10.149ZM27.285,28.382l.787-.817,10.15,9.8-.789.816Zm122.491,7.1L159.216,25l.843.761-9.437,10.484ZM29.652,26.058l.817-.787,9.8,10.148-.816.788Zm118.012,7.551L156.733,22.8l.871.731L148.535,34.34ZM32.1,23.821l.843-.761,9.442,10.484-.845.761Zm113.4,7.99,8.687-11.119.893.7-8.687,11.116ZM34.621,21.668l.869-.731,9.066,10.809-.869.729Zm108.633,8.418,8.294-11.416.916.669-8.291,11.413ZM37.215,19.6l.9-.7,8.683,11.118-.894.7ZM140.96,28.441l7.89-11.7.94.633-7.89,11.7ZM39.883,17.635l.918-.667,8.29,11.414-.916.665Zm98.726,9.243,7.478-11.965.961.6-7.474,11.965ZM42.615,15.756l.942-.634,7.89,11.7-.941.636ZM136.207,25.4l7.053-12.218.985.566-7.056,12.219ZM45.413,13.979l.962-.6,7.477,11.965-.965.6ZM133.75,24l6.626-12.458,1,.534-6.622,12.457ZM48.271,12.3l.982-.566,7.055,12.218-.984.566Zm82.98,10.4,6.183-12.681,1.02.5L132.27,23.189ZM51.184,10.714l1-.53,6.626,12.454-1,.533ZM128.7,21.47l5.742-12.888,1.034.461-5.737,12.89ZM54.153,9.237l1.02-.5L61.36,21.421l-1.02.5Zm71.962,11.1L131.4,7.259l1.052.425L127.17,20.763ZM57.172,7.867,58.21,7.4l5.735,12.888-1.036.463ZM123.494,19.3l4.823-13.258,1.067.386-4.826,13.258ZM60.235,6.6l1.054-.424,5.283,13.082-1.052.425Zm60.6,11.756L125.2,4.932l1.079.352L121.913,18.7ZM63.34,5.437l1.067-.386,4.824,13.256-1.065.389Zm54.8,12.059,3.889-13.562,1.09.312-3.889,13.563ZM66.487,4.387l1.082-.35,4.358,13.418-1.08.35Zm48.937,12.349,3.41-13.69,1.1.274-3.414,13.69ZM69.665,3.446l1.094-.312L74.648,16.7l-1.094.313Zm43.014,12.623,2.934-13.8,1.11.236-2.933,13.8ZM72.878,2.618l1.1-.274,3.414,13.69-1.1.274ZM76.115,1.9l1.109-.239,2.934,13.8-1.111.235Zm33.8,13.6,2.45-13.893,1.118.2L111.034,15.7ZM79.374,1.3l1.121-.2L82.941,15l-1.118.195ZM107.13,15.028l1.964-13.969,1.125.159-1.967,13.97ZM82.656.814,83.779.654l1.962,13.973-1.123.156Zm21.676,13.84L105.806.625l1.13.118-1.474,14.032ZM85.949.439,87.077.322,88.555,14.35l-1.132.12Zm15.573,13.941L102.507.3l1.133.08-.986,14.073ZM89.254.18,90.386.1l.985,14.076-1.132.08ZM98.706,14.2,99.2.1l1.132.039-.493,14.1ZM92.569.038,93.7,0l.492,14.1-1.135.039ZM95.882,14.12V.012H97.02V14.12Z" fill="url(#radial-gradient)"/>
</svg>
