<svg id="그룹_3286" data-name="그룹 3286" xmlns="http://www.w3.org/2000/svg" width="14.001" height="10.5" viewBox="0 0 14.001 10.5">
  <path id="합치기_66" data-name="합치기 66" d="M13.417,10.493a.3.3,0,0,1-.059.007H.488A.5.5,0,0,1,0,10V8A.5.5,0,0,1,1,8v.519H13V8a.5.5,0,0,1,1,0v2a.5.5,0,0,1-.5.5A.569.569,0,0,1,13.417,10.493ZM6.905,7H6.88L6.87,7H6.856l-.011,0-.013,0-.01,0-.014,0-.01,0-.013,0-.01,0-.013,0-.011,0-.011,0-.013-.006-.009,0L6.7,6.944l0,0a.524.524,0,0,1-.141-.109l-1.98-1.98a.5.5,0,0,1,.708-.705L6.429,5.292V.5a.5.5,0,1,1,1,0V5.293L8.575,4.147a.5.5,0,0,1,.708.705l-2,2a.492.492,0,0,1-.277.14h0L6.984,7h0L6.961,7H6.905Z" fill="#49cdc6"/>
</svg>
