<svg id="완료" xmlns="http://www.w3.org/2000/svg" width="23" height="23" viewBox="0 0 23 23">
  <path id="패스_5439" data-name="패스 5439" d="M11.5,0A11.5,11.5,0,1,1,0,11.5,11.5,11.5,0,0,1,11.5,0Z" fill="#1f242f"/>
  <g id="완료-2" data-name="완료" transform="translate(0 0.001)">
    <path id="빼기_42" data-name="빼기 42" d="M11.5,23A11.5,11.5,0,1,1,23,11.5,11.513,11.513,0,0,1,11.5,23ZM6.194,10.615a.884.884,0,0,0-.625,1.511l3.537,3.537a.862.862,0,0,0,.624.261.876.876,0,0,0,.627-.261l7.078-7.074a.887.887,0,0,0,0-1.25.881.881,0,0,0-1.251,0L9.73,13.788l-2.91-2.915A.882.882,0,0,0,6.194,10.615Z" fill="#49cdc6"/>
  </g>
</svg>
