<svg xmlns="http://www.w3.org/2000/svg" width="11.033" height="12" viewBox="0 0 11.033 12">
  <g id="삭제" transform="translate(-123 -382)">
    <path id="사각형_603" data-name="사각형 603" d="M1,1V9H8V1H1M0,0H9V10H0Z" transform="translate(124 384)" fill="#8b8b97"/>
    <path id="선_326" data-name="선 326" d="M11.033.5H0v-1H11.033Z" transform="translate(123 384.5)" fill="#8b8b97"/>
    <path id="사각형_604" data-name="사각형 604" d="M1,1V2H4V1H1M1,0H4A1,1,0,0,1,5,1V3H0V1A1,1,0,0,1,1,0Z" transform="translate(126 382)" fill="#8b8b97"/>
    <path id="선_326-2" data-name="선 326" d="M.5,5h-1V0h1Z" transform="translate(126.5 386.5)" fill="#8b8b97"/>
    <path id="선_327" data-name="선 327" d="M.5,5h-1V0h1Z" transform="translate(128.5 386.5)" fill="#8b8b97"/>
    <path id="선_328" data-name="선 328" d="M.5,5h-1V0h1Z" transform="translate(130.5 386.5)" fill="#8b8b97"/>
  </g>
</svg>
