<svg xmlns="http://www.w3.org/2000/svg" width="14.735" height="12" viewBox="0 0 14.735 12">
  <g id="그룹_6411" data-name="그룹 6411">
    <path id="빼기_29" data-name="빼기 29" d="M7.2,8.835a6.441,6.441,0,0,1-2.824-.706l.732-.71A3.778,3.778,0,0,0,7.2,8.042a3.685,3.685,0,0,0,3.733-3.626,3.524,3.524,0,0,0-.644-2.03l.98-.952a14.278,14.278,0,0,1,3.121,2.982,14.59,14.59,0,0,1-2.193,2.271A8.072,8.072,0,0,1,7.2,8.835ZM2.074,6.591h0A14.569,14.569,0,0,1,0,4.416C.135,4.233,3.329,0,7.2,0A5.786,5.786,0,0,1,8.659.194l-.7.679A3.876,3.876,0,0,0,7.2.8,3.683,3.683,0,0,0,3.46,4.416a3.552,3.552,0,0,0,.08.752L2.075,6.591Z" transform="translate(0 1.582)" fill="#fff"/>
  </g>
  <path id="선_484" data-name="선 484" d="M.186,11.5A.7.7,0,0,1-.3,11.3a.653.653,0,0,1,0-.943L10.682-.3a.7.7,0,0,1,.971,0,.653.653,0,0,1,0,.943L.672,11.3A.7.7,0,0,1,.186,11.5Z" transform="translate(2.882 0.5)" fill="#fff"/>
</svg>
