<svg id="실패" xmlns="http://www.w3.org/2000/svg" width="13.001" height="13" viewBox="0 0 13.001 13">
  <path id="패스_5440" data-name="패스 5440" d="M6.5,0A6.5,6.5,0,1,1,0,6.5,6.5,6.5,0,0,1,6.5,0Z" transform="translate(0.001)" fill="#1f242f"/>
  <path id="빼기_41" data-name="빼기 41" d="M1745.5-6522a6.508,6.508,0,0,1-6.5-6.5,6.508,6.508,0,0,1,6.5-6.5,6.507,6.507,0,0,1,6.5,6.5A6.507,6.507,0,0,1,1745.5-6522Zm0-5.773h0l2.128,2.126a.5.5,0,0,0,.361.151.512.512,0,0,0,.364-.151.509.509,0,0,0,.15-.362.51.51,0,0,0-.15-.363l-2.129-2.127,2.129-2.129a.513.513,0,0,0,0-.725.511.511,0,0,0-.363-.15.51.51,0,0,0-.362.15l-2.129,2.127-2.127-2.127a.51.51,0,0,0-.362-.15.51.51,0,0,0-.362.15.5.5,0,0,0-.153.362.505.505,0,0,0,.153.363l2.127,2.129-2.127,2.127a.513.513,0,0,0-.153.366.5.5,0,0,0,.153.359.5.5,0,0,0,.361.151.512.512,0,0,0,.364-.151l2.126-2.126Z" transform="translate(-1738.999 6535)" fill="#fc6060"/>
</svg>
