<svg id="closed_eyes" data-name="closed eyes" xmlns="http://www.w3.org/2000/svg" width="10.735" height="9.001" viewBox="0 0 10.735 9.001">
  <path id="closed_eyes-2" data-name="closed eyes" d="M8730.882-8310.146a.5.5,0,0,1,0-.706l8-8a.5.5,0,0,1,.708,0,.5.5,0,0,1,0,.709l-1.83,1.83a10.642,10.642,0,0,1,1.723,1.813,10.74,10.74,0,0,1-1.6,1.7,5.793,5.793,0,0,1-3.641,1.609,4.245,4.245,0,0,1-1.373-.239l-1.281,1.281a.5.5,0,0,1-.354.147A.5.5,0,0,1,8730.882-8310.146Zm3.36-1.636a2.722,2.722,0,0,0,2.72-2.72,2.709,2.709,0,0,0-.145-.872l-3.45,3.448A2.717,2.717,0,0,0,8734.242-8311.782ZM8729-8314.5c.1-.137,2.426-3.312,5.242-3.312a4.1,4.1,0,0,1,1.065.147l-.507.509a2.6,2.6,0,0,0-.559-.06,2.723,2.723,0,0,0-2.723,2.716,2.7,2.7,0,0,0,.06.565l-1.068,1.066A10.785,10.785,0,0,1,8729-8314.5Z" transform="translate(-8729 8319)" fill="#8b8b97"/>
</svg>
