<svg id="실패" xmlns="http://www.w3.org/2000/svg" width="13.001" height="13" viewBox="0 0 13.001 13">
  <path id="패스_5440" data-name="패스 5440" d="M6.5,0A6.5,6.5,0,1,1,0,6.5,6.5,6.5,0,0,1,6.5,0Z" transform="translate(0.001)" fill="#1f242f"/>
  <path id="빼기_41" data-name="빼기 41" d="M6.5,13A6.5,6.5,0,1,1,13,6.5,6.508,6.508,0,0,1,6.5,13Zm0-5.773h0L8.63,9.354a.5.5,0,0,0,.361.151.514.514,0,0,0,.364-.876L7.226,6.5,9.354,4.373a.513.513,0,1,0-.725-.725L6.5,5.775,4.374,3.648a.513.513,0,1,0-.725.725L5.776,6.5,3.649,8.629A.515.515,0,0,0,3.5,9a.5.5,0,0,0,.153.359.5.5,0,0,0,.361.151.512.512,0,0,0,.364-.151L6.5,7.228Z" fill="#fc6060"/>
</svg>
