<svg xmlns="http://www.w3.org/2000/svg" width="13.394" height="13.548" viewBox="0 0 13.394 13.548" style="fill-rule:font-color">
  <g id="그룹_3642" data-name="그룹 3642" transform="translate(-98.802 -114.845)">
    <path id="합치기_62" data-name="합치기 62" d="M7352.237-11586.242l-1.4,1.4.619.619,1.4-1.4Zm-1.9,1.9-1.4,1.4.619.618,1.4-1.4Zm-1.9,1.9-1.4,1.4.619.618,1.4-1.4Zm-1.9,1.9-1.4,1.4.619.619,1.4-1.4Zm-1.9,1.9-1.4,1.4.619.619,1.4-1.4Zm-1.9,1.9-1.4,1.4.619.618,1.4-1.4Zm-1.9,1.9-1.4,1.4.619.618,1.4-1.4Z" transform="translate(-7240.659 11701.242)" fill="fontcolor"/>
    <path id="패스_5449" data-name="패스 5449" d="M-7182.306,8296.02h-7.708v-1h5.506l-2.161-2.472.753-.658Z" transform="translate(7294.424 -8168.278)" fill="fontcolor"/>
    <path id="패스_5450" data-name="패스 5450" d="M-7186.787,8296.02h-6.346l3.61-4.13.753.658-2.161,2.472h4.144Z" transform="translate(7292 -8177.044)" fill="fontcolor"/>
  </g>
</svg>
