<svg id="완료" xmlns="http://www.w3.org/2000/svg" width="13" height="13" viewBox="0 0 13 13">
  <path id="패스_5439" data-name="패스 5439" d="M6.5,0A6.5,6.5,0,1,1,0,6.5,6.5,6.5,0,0,1,6.5,0Z" fill="#1f242f"/>
  <g id="완료-2" data-name="완료" transform="translate(0)">
    <path id="빼기_42" data-name="빼기 42" d="M6.5,13A6.5,6.5,0,1,1,13,6.5,6.507,6.507,0,0,1,6.5,13Zm-3-7a.5.5,0,0,0-.353.854l2,2A.488.488,0,0,0,5.5,9a.5.5,0,0,0,.354-.147l4-4a.5.5,0,0,0,0-.707.5.5,0,0,0-.707,0L5.5,7.793,3.854,6.146A.5.5,0,0,0,3.5,6Z" fill="#49cdc6"/>
  </g>
</svg>
