<svg xmlns="http://www.w3.org/2000/svg" width="11.462" height="15.421" viewBox="0 0 11.462 15.421">
  <path id="사각형_520_-_윤곽선" data-name="사각형 520 - 윤곽선" d="M-.463-1H9.925a.537.537,0,0,1,.537.537V7.7a.537.537,0,0,1-.537.537H-.463A.537.537,0,0,1-1,7.7V-.463A.537.537,0,0,1-.463-1ZM9.388.075H.075V7.161H9.388Z" transform="translate(1 7.186)" fill="#fff"/>
  <path id="사각형_521_-_윤곽선" data-name="사각형 521 - 윤곽선" d="M2.307-1A3.311,3.311,0,0,1,5.614,2.307v3.6c0,.285-.231-.485-.515-.485H-.485c-.285,0-.515.769-.515.485v-3.6A3.311,3.311,0,0,1,2.307-1ZM4.583,5.391V2.307A2.279,2.279,0,0,0,2.307.031h0A2.279,2.279,0,0,0,.031,2.307V5.391Z" transform="translate(3.363 1)" fill="#fff"/>
</svg>
