<svg xmlns="http://www.w3.org/2000/svg" width="21.691" height="6.444" viewBox="0 0 21.691 6.444">
  <path id="빼기_71" data-name="빼기 71" d="M10414.326-4272.856a2.587,2.587,0,0,1-1.291-.347,2.6,2.6,0,0,1-.949-3.537,2.6,2.6,0,0,1,.7-.784l1.545-16.476,1.545,16.479a2.583,2.583,0,0,1,.7,3.37A2.6,2.6,0,0,1,10414.326-4272.856Zm0-3.348a.756.756,0,0,0-.655.379.76.76,0,0,0,.277,1.035.753.753,0,0,0,.376.1.756.756,0,0,0,.659-.379.762.762,0,0,0-.277-1.036A.763.763,0,0,0,10414.328-4276.2Z" transform="translate(4294.047 10417.534) rotate(-90)" fill="#fff" stroke="rgba(0,0,0,0)" stroke-miterlimit="10" stroke-width="1"/>
</svg>
