<svg xmlns="http://www.w3.org/2000/svg" width="31" height="31" viewBox="0 0 31 31">
  <g id="필터__btn" data-name="필터 _btn" transform="translate(-1309 -61)">
    <g id="nomal" transform="translate(47.66 -71.5)">
      <path id="패스_5476" data-name="패스 5476" d="M15.5,0A15.5,15.5,0,1,1,0,15.5,15.5,15.5,0,0,1,15.5,0Z" transform="translate(1261.34 132.5)" fill="#49cdc6"/>
      <path id="합치기_57" data-name="합치기 57" d="M5844.316-6204.82v-5.8h1.451v2.176h7.252v1.451h-7.252v2.175Zm-7.977-2.175v-1.451h5.8v1.451Zm4.352-2.9v-5.8h1.451v5.8Zm-4.352-2.176v-1.451h4.352v1.451Zm7.977-.725v-1.451h8.7v1.451Zm2.9-2.9v-5.8h1.451v2.175h4.352v1.452h-4.352v2.175Zm-10.878-2.175v-1.452h8.7v1.452Z" transform="translate(-4567.84 6361)" fill="#12141c"/>
    </g>
    <g id="over.click" transform="translate(47.66 -71.5)">
      <path id="패스_5476-2" data-name="패스 5476" d="M15.5,0A15.5,15.5,0,1,1,0,15.5,15.5,15.5,0,0,1,15.5,0Z" transform="translate(1261.34 132.5)" fill="#82f1eb"/>
      <path id="합치기_57-2" data-name="합치기 57" d="M5844.316-6204.82v-5.8h1.451v2.176h7.252v1.451h-7.252v2.175Zm-7.977-2.175v-1.451h5.8v1.451Zm4.352-2.9v-5.8h1.451v5.8Zm-4.352-2.176v-1.451h4.352v1.451Zm7.977-.725v-1.451h8.7v1.451Zm2.9-2.9v-5.8h1.451v2.175h4.352v1.452h-4.352v2.175Zm-10.878-2.175v-1.452h8.7v1.452Z" transform="translate(-4567.84 6361)" fill="#12141c"/>
    </g>
  </g>
</svg>
