<svg xmlns="http://www.w3.org/2000/svg" width="14" height="14" viewBox="0 0 14 14">
  <g id="패스_5489" data-name="패스 5489" fill="none">
    <path d="M7,0a7,7,0,0,1,7,7,7.387,7.387,0,0,1-.532,2.681A6.9,6.9,0,0,1,7,14,7,7,0,0,1,7,0Z" stroke="none"/>
    <path d="M 7 1 C 3.691590309143066 1 1 3.691590309143066 1 7 C 1 10.30840969085693 3.691590309143066 13 7 13 C 8.247610092163086 13 9.450240135192871 12.62532043457031 10.47786998748779 11.91645050048828 C 11.44124031066895 11.25191974639893 12.1690502166748 10.33782958984375 12.52723026275635 9.342559814453125 L 12.53036975860596 9.333950042724609 C 12.85955047607422 8.444919586181641 13 7.746920108795166 13 7 C 13 3.691590309143066 10.30840969085693 1 7 1 M 7 0 C 10.86598968505859 0 14 3.134010314941406 14 7 C 14 7.838920116424561 13.85241985321045 8.643369674682617 13.46815013885498 9.681180000305176 C 12.60536956787109 12.07857036590576 10.02707004547119 14 7 14 C 3.134010314941406 14 0 10.86598968505859 0 7 C 0 3.134010314941406 3.134010314941406 0 7 0 Z" stroke="none" fill="#fff"/>
  </g>
  <path id="패스_5148" data-name="패스 5148" d="M214.822,407.54a.73.73,0,0,1,0,1.033l-4.23,4.223a.475.475,0,0,1-.671,0l-2.01-2a.73.73,0,0,1,0-1.033h0a.73.73,0,0,1,1.033,0l1.313,1.313,3.532-3.532a.73.73,0,0,1,1.033,0Z" transform="translate(-204.698 -402.326)" fill="#fff"/>
</svg>
