<svg xmlns="http://www.w3.org/2000/svg" xmlns:xlink="http://www.w3.org/1999/xlink" width="40" height="40" viewBox="0 0 40 40">
  <defs>
    <clipPath id="clip-path">
      <rect id="사각형_3368" data-name="사각형 3368" width="40" height="40" transform="translate(1320)" fill="#fff"/>
    </clipPath>
  </defs>
  <g id="설정" transform="translate(-1320)">
    <g id="over.click" clip-path="url(#clip-path)">
      <path id="ico" d="M194.673,1019.663a5.744,5.744,0,0,0-.172-1.372l1.746-1.272-1.371-2.375-1.974.876a5.735,5.735,0,0,0-2.378-1.374L190.3,1012h-2.742l-.228,2.146a5.735,5.735,0,0,0-2.378,1.374l-1.974-.876-1.371,2.375,1.746,1.272a5.568,5.568,0,0,0,0,2.745l-1.746,1.272,1.371,2.375,1.974-.876a5.733,5.733,0,0,0,2.378,1.375l.228,2.146H190.3l.228-2.146a5.733,5.733,0,0,0,2.378-1.375l1.974.876,1.371-2.375-1.746-1.272A5.743,5.743,0,0,0,194.673,1019.663Zm-5.748,2.7a2.7,2.7,0,1,1,2.7-2.7A2.7,2.7,0,0,1,188.925,1022.368Z" transform="translate(1149.396 -998.5)" fill="#24d7cb"/>
    </g>
    <g id="nomal" clip-path="url(#clip-path)">
      <path id="ico-2" data-name="ico" d="M194.673,1019.663a5.744,5.744,0,0,0-.172-1.372l1.746-1.272-1.371-2.375-1.974.876a5.735,5.735,0,0,0-2.378-1.374L190.3,1012h-2.742l-.228,2.146a5.735,5.735,0,0,0-2.378,1.374l-1.974-.876-1.371,2.375,1.746,1.272a5.568,5.568,0,0,0,0,2.745l-1.746,1.272,1.371,2.375,1.974-.876a5.733,5.733,0,0,0,2.378,1.375l.228,2.146H190.3l.228-2.146a5.733,5.733,0,0,0,2.378-1.375l1.974.876,1.371-2.375-1.746-1.272A5.743,5.743,0,0,0,194.673,1019.663Zm-5.748,2.7a2.7,2.7,0,1,1,2.7-2.7A2.7,2.7,0,0,1,188.925,1022.368Z" transform="translate(1149.396 -998.5)" fill="#24D7CB"/>
    </g>
  </g>
</svg>
