<svg xmlns="http://www.w3.org/2000/svg" xmlns:xlink="http://www.w3.org/1999/xlink" width="13" height="13" viewBox="0 0 13 13">
  <defs>
    <clipPath id="clip-path">
      <rect id="사각형_674" data-name="사각형 674" width="13" height="13" transform="translate(529 263)" fill="#fff"/>
    </clipPath>
  </defs>
  <g id="마스크_그룹_3" data-name="마스크 그룹 3" transform="translate(-529 -263)" clip-path="url(#clip-path)">
    <path id="빼기_21" data-name="빼기 21" d="M3666.612-6778H3657.7a1.771,1.771,0,0,1-.659-.126,1.715,1.715,0,0,1-.544-.346,1.585,1.585,0,0,1-.366-.517,1.532,1.532,0,0,1-.135-.627v-9.768a1.56,1.56,0,0,1,.135-.629,1.613,1.613,0,0,1,.366-.515,1.671,1.671,0,0,1,.539-.344,1.762,1.762,0,0,1,.665-.129h7a1.147,1.147,0,0,1,.781.307l2.514,2.385a1.029,1.029,0,0,1,.322.742v7.951a1.53,1.53,0,0,1-.133.627,1.6,1.6,0,0,1-.366.517,1.7,1.7,0,0,1-.542.346A1.794,1.794,0,0,1,3666.612-6778Zm-2.57-11.529h0l.043,2.335h2.6l-2.645-2.335Z" transform="translate(-3126.658 7054)" fill="#fff"/>
  </g>
</svg>
