<svg xmlns="http://www.w3.org/2000/svg" width="13" height="13" viewBox="0 0 13 13">
  <g id="그룹_3575" data-name="그룹 3575" transform="translate(0 0)">
    <g id="패스_4909" data-name="패스 4909" transform="translate(-67.749 -732.906)" fill="none" stroke-linecap="round" stroke-linejoin="round">
      <path d="M79.963,735.4h-7.7l-.369-1.245-.041-.138-.093-.316a1.149,1.149,0,0,0-1.022-.791h-2.2a.811.811,0,0,0-.786.829v11.341a.812.812,0,0,0,.786.83H79.963a.812.812,0,0,0,.786-.83v-8.851A.811.811,0,0,0,79.963,735.4Z" stroke="none"/>
      <path d="M 68.74900054931641 733.9059448242188 L 68.74900054931641 744.9059448242188 L 79.74900054931641 744.9059448242188 L 79.74900054931641 736.3953247070312 L 72.26139068603516 736.3953247070312 C 71.81863403320312 736.3953247070312 71.42857360839844 736.1041870117188 71.30267333984375 735.6796875 L 70.80083465576172 733.9852905273438 C 70.78801727294922 733.9591064453125 70.74361419677734 733.9195556640625 70.71295928955078 733.9059448242188 L 68.74900054931641 733.9059448242188 M 68.53479766845703 732.9059448242188 L 70.73658752441406 732.9059448242188 C 71.16977691650391 732.9059448242188 71.62917327880859 733.2617797851562 71.75829315185547 733.6966552734375 L 72.26139068603516 735.3953247070312 L 79.96282958984375 735.3953247070312 C 80.39498901367188 735.3953247070312 80.74900054931641 735.7685546875 80.74900054931641 736.224609375 L 80.74900054931641 745.075927734375 C 80.74900054931641 745.53173828125 80.39498901367188 745.9059448242188 79.96282958984375 745.9059448242188 L 68.53479766845703 745.9059448242188 C 68.10298919677734 745.9059448242188 67.74900054931641 745.53173828125 67.74900054931641 745.075927734375 L 67.74900054931641 733.7352294921875 C 67.74900054931641 733.279541015625 68.10298919677734 732.9059448242188 68.53479766845703 732.9059448242188 Z" stroke="none" fill="#fff"/>
    </g>
  </g>
</svg>
