<svg xmlns="http://www.w3.org/2000/svg" width="10.507" height="10.665" viewBox="0 0 10.507 10.665">
  <g id="위성" transform="translate(-4048.047 -3335.851)">
    <path id="패스_5441" data-name="패스 5441" d="M4128.216,3353.189a.339.339,0,0,0-.335.59,3.64,3.64,0,0,1,1.468,1.548.34.34,0,0,0,.3.188.336.336,0,0,0,.151-.036.339.339,0,0,0,.153-.455A4.322,4.322,0,0,0,4128.216,3353.189Z" transform="translate(-72.907 -15.827)" fill="#fff"/>
    <path id="패스_5442" data-name="패스 5442" d="M4138.027,3338.885a4.973,4.973,0,0,0-2.642-3,.339.339,0,0,0-.287.615,4.292,4.292,0,0,1,2.282,2.593.339.339,0,1,0,.646-.206Z" transform="translate(-79.49 0)" fill="#fff"/>
    <path id="패스_5443" data-name="패스 5443" d="M4067.356,3418.481a3.64,3.64,0,0,1-1.522-1.495.339.339,0,0,0-.6.324,4.319,4.319,0,0,0,1.8,1.772.339.339,0,0,0,.314-.6Z" transform="translate(-15.695 -74.092)" fill="#fff"/>
    <path id="패스_5444" data-name="패스 5444" d="M4051.079,3424.417a4.292,4.292,0,0,1-2.374-2.51.339.339,0,0,0-.639.229,4.971,4.971,0,0,0,2.748,2.906.336.336,0,0,0,.132.027.339.339,0,0,0,.132-.652Z" transform="translate(0 -78.552)" fill="#fff"/>
    <path id="패스_5445" data-name="패스 5445" d="M4052.911,3340.307l-.464-2.344-2.991,2.991,2.343.464-.928.928,4.4,4.4,2.98-2.981-4.4-4.4Z" transform="translate(-1.29 -1.933)" fill="#fff"/>
  </g>
</svg>
