<svg xmlns="http://www.w3.org/2000/svg" width="11.816" height="16.208" viewBox="0 0 11.816 16.208">
  <g id="그룹_758" data-name="그룹 758" transform="translate(-8.58 -4.58)">
    <g id="빼기_34" data-name="빼기 34" transform="translate(-6919.993 12558.816)" fill="none" stroke-miterlimit="10">
      <path d="M6934.481-12553.236a4.909,4.909,0,0,0-4.908,4.908,4.884,4.884,0,0,0,1.141,3.145l3.768,5.406,3.768-5.406a4.887,4.887,0,0,0,1.14-3.145A4.909,4.909,0,0,0,6934.481-12553.236Z" stroke="none"/>
      <path d="M 6934.4814453125 -12553.236328125 C 6931.77099609375 -12553.236328125 6929.5732421875 -12551.0380859375 6929.5732421875 -12548.328125 C 6929.5732421875 -12547.130859375 6930.001953125 -12546.03515625 6930.7138671875 -12545.18359375 L 6934.4814453125 -12539.77734375 L 6938.24951171875 -12545.18359375 C 6938.9609375 -12546.03515625 6939.3896484375 -12547.130859375 6939.3896484375 -12548.328125 C 6939.3896484375 -12551.0380859375 6937.1923828125 -12553.236328125 6934.4814453125 -12553.236328125 M 6934.4814453125 -12554.236328125 C 6937.7392578125 -12554.236328125 6940.3896484375 -12551.5859375 6940.3896484375 -12548.328125 C 6940.3896484375 -12546.9619140625 6939.91259765625 -12545.6318359375 6939.0458984375 -12544.578125 L 6934.4814453125 -12538.0283203125 L 6929.91748046875 -12544.5771484375 C 6929.05029296875 -12545.6318359375 6928.5732421875 -12546.9619140625 6928.5732421875 -12548.328125 C 6928.5732421875 -12551.5859375 6931.2236328125 -12554.236328125 6934.4814453125 -12554.236328125 Z" stroke="none" fill="#fff"/>
    </g>
  </g>
  <circle id="타원_1461" data-name="타원 1461" cx="1.5" cy="1.5" r="1.5" transform="translate(3.999 4.459)" fill="#fff"/>
</svg>
