<svg id="그룹_3268" data-name="그룹 3268" xmlns="http://www.w3.org/2000/svg" width="12.73" height="12.361" viewBox="0 0 12.73 12.361">
  <path id="빼기_39" data-name="빼기 39" d="M.613,7.016h0L0,6.322l3.954-4.83,1.84,2.161-.01.012-.01.012a3.892,3.892,0,0,0-.508.769l-1.3-1.527L.613,7.015Zm5.614-1.44h0L6,5.307a2.756,2.756,0,0,1,.474-.81A2.174,2.174,0,0,1,7.8,3.729L6.227,5.575Zm2.52-2.959h0A2.846,2.846,0,0,0,7.56,2.6L9.77,0l.6.708L8.747,2.617Z" transform="translate(0 1.925)" fill="#fff"/>
  <path id="패스_5429" data-name="패스 5429" d="M1.922,0,3.334,2.709,0,3.006Z" transform="translate(9.643 0) rotate(45)" fill="#fff"/>
  <g id="그룹_2966" data-name="그룹 2966" transform="translate(5.73 5.361)">
    <g id="그룹_2965" data-name="그룹 2965" transform="translate(0)">
      <path id="패스_4895" data-name="패스 4895" d="M306.927,431.906h0a3.291,3.291,0,0,1-2.348-.977,3.354,3.354,0,0,1,0-4.72,3.309,3.309,0,0,1,4.7,0,3.354,3.354,0,0,1,0,4.72A3.291,3.291,0,0,1,306.927,431.906Zm0-5.675a2.3,2.3,0,0,0-1.644.685,2.348,2.348,0,0,0,0,3.3,2.3,2.3,0,0,0,1.644.684h0a2.3,2.3,0,0,0,1.644-.685,2.348,2.348,0,0,0,0-3.3A2.3,2.3,0,0,0,306.927,426.232Z" transform="translate(-303.608 -425.231)" fill="#fff"/>
      <path id="패스_4896" data-name="패스 4896" d="M306.927,431.906h0a3.291,3.291,0,0,1-2.348-.977,3.354,3.354,0,0,1,0-4.72,3.309,3.309,0,0,1,4.7,0,3.354,3.354,0,0,1,0,4.72A3.291,3.291,0,0,1,306.927,431.906Zm0-5.675a2.3,2.3,0,0,0-1.644.685,2.348,2.348,0,0,0,0,3.3,2.3,2.3,0,0,0,1.644.684h0a2.3,2.3,0,0,0,1.644-.685,2.348,2.348,0,0,0,0-3.3A2.3,2.3,0,0,0,306.927,426.232Z" transform="translate(-303.608 -425.231)" fill="#fff"/>
    </g>
    <path id="선_366" data-name="선 366" d="M1.1,1.309a.589.589,0,0,1-.383-.135L-.348.259a.4.4,0,0,1,.01-.632.611.611,0,0,1,.756.008L1.484.551a.4.4,0,0,1-.01.632A.592.592,0,0,1,1.1,1.309Z" transform="translate(5.365 5.691)" fill="#fff"/>
  </g>
</svg>
