<svg xmlns="http://www.w3.org/2000/svg" xmlns:xlink="http://www.w3.org/1999/xlink" width="21.49" height="24.277" viewBox="0 0 21.49 24.277">
  <defs>
    <linearGradient id="linear-gradient" x1="0.5" x2="0.5" y2="1" gradientUnits="objectBoundingBox">
      <stop offset="0" stop-color="#fff"/>
      <stop offset="0.104" stop-color="#e7f4f9"/>
      <stop offset="1" stop-color="#b7d1de"/>
    </linearGradient>
  </defs>
  <g id="타임포인트" transform="translate(-557.755 -684.279)">
    <path id="패스_5182" data-name="패스 5182" d="M0,0" transform="translate(568.5 698.5)" fill="none" stroke="#0f2" stroke-width="1"/>
    <g id="패스_4767" data-name="패스 4767" transform="translate(-8955.578 -342.912)" fill="url(#linear-gradient)">
      <path d="M 9524.0986328125 1050.968017578125 C 9523.376953125 1050.968017578125 9522.6953125 1050.735107421875 9522.1806640625 1050.312133789062 L 9515.623046875 1044.929809570312 C 9514.619140625 1044.10498046875 9513.8330078125 1042.202758789062 9513.8330078125 1040.598999023438 L 9513.8330078125 1030.268188476562 C 9513.8330078125 1028.606323242188 9514.740234375 1027.691040039062 9516.38671875 1027.691040039062 L 9531.76953125 1027.691040039062 C 9533.416015625 1027.691040039062 9534.3232421875 1028.606323242188 9534.3232421875 1030.268188476562 L 9534.3232421875 1040.598266601562 C 9534.3232421875 1042.202514648438 9533.5380859375 1044.107177734375 9532.53515625 1044.9345703125 L 9526.025390625 1050.306396484375 C 9525.5078125 1050.733032226562 9524.82421875 1050.968017578125 9524.0986328125 1050.968017578125 Z" stroke="none"/>
      <path d="M 9524.0986328125 1050.468017578125 C 9524.681640625 1050.468017578125 9525.2646484375 1050.285522460938 9525.70703125 1049.920776367188 L 9532.216796875 1044.548828125 C 9533.1005859375 1043.819702148438 9533.8232421875 1042.0419921875 9533.8232421875 1040.598266601562 L 9533.8232421875 1030.268188476562 C 9533.8232421875 1028.675048828125 9532.8994140625 1028.191040039062 9531.76953125 1028.191040039062 L 9516.38671875 1028.191040039062 C 9515.2568359375 1028.191040039062 9514.3330078125 1028.675048828125 9514.3330078125 1030.268188476562 L 9514.3330078125 1040.598999023438 C 9514.3330078125 1042.042236328125 9515.056640625 1043.817260742188 9515.9404296875 1044.543334960938 L 9522.498046875 1049.92578125 C 9522.9384765625 1050.287353515625 9523.5185546875 1050.468017578125 9524.0986328125 1050.468017578125 M 9524.0986328125 1051.468017578125 C 9523.26171875 1051.468017578125 9522.4677734375 1051.194702148438 9521.86328125 1050.698608398438 L 9515.3056640625 1045.316284179688 C 9514.1806640625 1044.39208984375 9513.3330078125 1042.3642578125 9513.3330078125 1040.598999023438 L 9513.3330078125 1030.268188476562 C 9513.3330078125 1028.341430664062 9514.474609375 1027.191040039062 9516.38671875 1027.191040039062 L 9531.76953125 1027.191040039062 C 9533.681640625 1027.191040039062 9534.8232421875 1028.341430664062 9534.8232421875 1030.268188476562 L 9534.8232421875 1040.598266601562 C 9534.8232421875 1042.363647460938 9533.9765625 1044.393676757812 9532.853515625 1045.320190429688 L 9526.34375 1050.692016601562 C 9525.7373046875 1051.192504882812 9524.939453125 1051.468017578125 9524.0986328125 1051.468017578125 Z" stroke="none" fill="#242439"/>
    </g>
    <line id="선_340" data-name="선 340" y2="5.182" transform="translate(565.5 692.5)" fill="none" stroke="#2d2d48" stroke-linecap="round" stroke-width="1"/>
    <line id="선_341" data-name="선 341" y2="5.182" transform="translate(568.5 692.5)" fill="none" stroke="#2d2d48" stroke-linecap="round" stroke-width="1"/>
    <line id="선_342" data-name="선 342" y2="5.182" transform="translate(571.5 692.5)" fill="none" stroke="#2d2d48" stroke-linecap="round" stroke-width="1"/>
  </g>
</svg>
