<svg id="time" xmlns="http://www.w3.org/2000/svg" width="10.999" height="10.999" viewBox="0 0 10.999 10.999">
  <path id="합치기_59" data-name="합치기 59" d="M8699-8300.5a5.5,5.5,0,0,1,5.5-5.5,5.5,5.5,0,0,1,5.5,5.5,5.5,5.5,0,0,1-5.5,5.5A5.5,5.5,0,0,1,8699-8300.5Zm1,0a4.506,4.506,0,0,0,4.5,4.5,4.5,4.5,0,0,0,4.5-4.5,4.5,4.5,0,0,0-4.5-4.5A4.5,4.5,0,0,0,8700-8300.5Zm4.5.5a.5.5,0,0,1-.5-.5v-3.4a.5.5,0,0,1,.5-.5.5.5,0,0,1,.5.5v2.9h1.982a.5.5,0,0,1,.5.5.5.5,0,0,1-.5.5Z" transform="translate(-8699.001 8306)" fill="#fff"/>
</svg>
