<svg xmlns="http://www.w3.org/2000/svg" xmlns:xlink="http://www.w3.org/1999/xlink" width="69.084" height="68.398" viewBox="0 0 69.084 68.398">
  <defs>
    <filter id="합치기_45" x="0" y="0" width="69.084" height="68.398" filterUnits="userSpaceOnUse">
      <feOffset input="SourceAlpha"/>
      <feGaussianBlur stdDeviation="5" result="blur"/>
      <feFlood/>
      <feComposite operator="in" in2="blur"/>
      <feComposite in="SourceGraphic"/>
    </filter>
    <filter id="합치기_45-2" x="11.361" y="10.999" width="46.004" height="46.178" filterUnits="userSpaceOnUse">
      <feOffset input="SourceAlpha"/>
      <feGaussianBlur stdDeviation="5" result="blur-2"/>
      <feFlood/>
      <feComposite operator="in" in2="blur-2"/>
      <feComposite in="SourceGraphic"/>
    </filter>
  </defs>
  <g id="그룹_3680" data-name="그룹 3680" transform="translate(-729.958 -569.801)">
    <g id="그룹_3379" data-name="그룹 3379" transform="translate(-115.181 218.729)">
      <g id="그룹_3378" data-name="그룹 3378" transform="translate(17.122 112.344)">
        <g transform="matrix(1, 0, 0, 1, 828.02, 238.73)" filter="url(#합치기_45)">
          <g id="합치기_45-3" data-name="합치기 45" transform="translate(24 24)">
            <path d="M 12.43350028991699 20.14850044250488 C 11.70240020751953 20.14850044250488 11.10760021209717 19.5536994934082 11.10760021209717 18.82259941101074 L 11.10760021209717 1.576800346374512 C 11.10760021209717 0.8457003831863403 11.70240020751953 0.2509003579616547 12.43350028991699 0.2509003579616547 C 13.16460037231445 0.2509003579616547 13.75940036773682 0.8457003831863403 13.75940036773682 1.576800346374512 L 13.75940036773682 18.82259941101074 C 13.75940036773682 19.5536994934082 13.16460037231445 20.14850044250488 12.43350028991699 20.14850044250488 Z M 8.650800704956055 20.14850044250488 C 7.919700622558594 20.14850044250488 7.32490062713623 19.5536994934082 7.32490062713623 18.82259941101074 L 7.32490062713623 1.57770037651062 C 7.32490062713623 0.8461003303527832 7.919700622558594 0.2509003579616547 8.650800704956055 0.2509003579616547 C 9.381900787353516 0.2509003579616547 9.976700782775879 0.8461003303527832 9.976700782775879 1.57770037651062 L 9.976700782775879 18.82259941101074 C 9.976700782775879 19.5536994934082 9.381900787353516 20.14850044250488 8.650800704956055 20.14850044250488 Z M 15.97390079498291 13.34146595001221 L 15.97390079498291 7.543091297149658 L 20.61260032653809 10.44266796112061 L 15.97390079498291 13.34146595001221 Z M 5.110400676727295 13.34146595001221 L 0.4717004895210266 10.44266796112061 L 5.110400676727295 7.543091297149658 L 5.110400676727295 13.34146595001221 Z" stroke="none"/>
            <path d="M 12.43350028991699 19.89850044250488 C 13.0267505645752 19.89850044250488 13.50940036773682 19.41584968566895 13.50940036773682 18.82259941101074 L 13.50940036773682 1.576800346374512 C 13.50940036773682 0.9835503697395325 13.0267505645752 0.5009003281593323 12.43350028991699 0.5009003281593323 C 11.84025096893311 0.5009003281593323 11.35760021209717 0.9835503697395325 11.35760021209717 1.576800346374512 L 11.35760021209717 18.82259941101074 C 11.35760021209717 19.41584968566895 11.84025096893311 19.89850044250488 12.43350028991699 19.89850044250488 M 8.650800704956055 19.89850044250488 C 9.244050025939941 19.89850044250488 9.726700782775879 19.41584968566895 9.726700782775879 18.82259941101074 L 9.726700782775879 1.57770037651062 C 9.726700782775879 0.9839503765106201 9.244050025939941 0.5009003281593323 8.650800704956055 0.5009003281593323 C 8.057550430297852 0.5009003281593323 7.57490062713623 0.9839503765106201 7.57490062713623 1.57770037651062 L 7.57490062713623 18.82259941101074 C 7.57490062713623 19.41584968566895 8.057550430297852 19.89850044250488 8.650800704956055 19.89850044250488 M 16.22389984130859 12.89043807983398 L 20.14089965820312 10.44264221191406 L 16.22389984130859 7.99418830871582 L 16.22389984130859 12.89043807983398 M 4.860400676727295 12.89043807983398 L 4.860400676727295 7.99418830871582 L 0.943400502204895 10.44264221191406 L 4.860400676727295 12.89043807983398 M 12.43350028991699 20.39850044250488 C 11.56500053405762 20.39850044250488 10.85760021209717 19.69110107421875 10.85760021209717 18.82259941101074 L 10.85760021209717 1.576800346374512 C 10.85760021209717 0.7083003520965576 11.56500053405762 0.0009003555169329047 12.43350028991699 0.0009003555169329047 C 13.30290031433105 0.0009003555169329047 14.00940036773682 0.7083003520965576 14.00940036773682 1.576800346374512 L 14.00940036773682 18.82259941101074 C 14.00940036773682 19.69110107421875 13.30290031433105 20.39850044250488 12.43350028991699 20.39850044250488 Z M 8.650800704956055 20.39850044250488 C 7.782300472259521 20.39850044250488 7.07490062713623 19.6919994354248 7.07490062713623 18.82259941101074 L 7.07490062713623 1.57770037651062 C 7.07490062713623 0.7083003520965576 7.782300472259521 0.0009003555169329047 8.650800704956055 0.0009003555169329047 C 9.520200729370117 0.0009003555169329047 10.22670078277588 0.7083003520965576 10.22670078277588 1.57770037651062 L 10.22670078277588 18.82259941101074 C 10.22670078277588 19.6919994354248 9.520200729370117 20.39850044250488 8.650800704956055 20.39850044250488 Z M 15.72390079498291 13.79250049591064 L 15.72390079498291 7.092000484466553 L 21.08430099487305 10.44270038604736 L 15.72390079498291 13.79250049591064 Z M 5.360400676727295 13.79250049591064 L 4.974365310772555e-07 10.44270038604736 L 5.360400676727295 7.092000484466553 L 5.360400676727295 13.79250049591064 Z" stroke="none" fill="#000"/>
          </g>
        </g>
      </g>
      <g id="그룹_3377" data-name="그룹 3377" transform="translate(18.623 94.344)">
        <g transform="matrix(1, 0, 0, 1, 826.52, 256.73)" filter="url(#합치기_45-2)">
          <path id="합치기_45-4" data-name="합치기 45" d="M7316.758-12587.666v-13.679c0-.689.335-1.25.75-1.25s.75.561.75,1.25v13.679c0,.689-.335,1.249-.75,1.249S7316.758-12586.977,7316.758-12587.666Zm-3,0v-13.679c0-.689.338-1.25.75-1.25s.753.561.753,1.25v13.679c0,.689-.338,1.249-.753,1.249S7313.757-12586.977,7313.757-12587.666Zm6-9.3,4.254,2.66-4.254,2.656Zm-11.75,2.66,4.251-2.66v5.316Z" transform="translate(-7281.65 12628.59)" fill="#fff"/>
        </g>
      </g>
    </g>
  </g>
</svg>
